# xmcd
#
# Track frame offsets: 
#        150
#        24482
#        35364
#        46512
#        60664
#        79329
#        94675
#        107051
#
# Disc length: 1611 seconds
#
# Revision: 0
# Processed by: cddbd v1.5.2PL0 Copyright (c) Steve Scherf et al.
# Submitted via: ExactAudioCopy v1.3
#
DISCID=57064908
DTITLE=Blått Rom - Vol. 2 [CD 2)
DYEAR=2016
DGENRE=Blues
TTITLE0=Mannish Boy
TTITLE1=Big Town Playboy
TTITLE2=Baby Please Don't Go
TTITLE3=Left Me With a Broken Heart
TTITLE4=Come Back Baby
TTITLE5=Oh Baby
TTITLE6=Catfish Blues
TTITLE7=Feed My Body To the Fishes
EXTD=
EXTT0=
EXTT1=
EXTT2=
EXTT3=
EXTT4=
EXTT5=
EXTT6=
EXTT7=
PLAYORDER=
